<svg width="56" height="56" viewBox="0 0 56 56" fill="none" xmlns="http://www.w3.org/2000/svg">
<g clip-path="url(#clip0_59_70)">
<path d="M23.3333 25.6667H14C13.3812 25.6667 12.7877 25.4208 12.3501 24.9832C11.9125 24.5457 11.6667 23.9522 11.6667 23.3333V16.3333C11.6667 15.7145 11.9125 15.121 12.3501 14.6834C12.7877 14.2458 13.3812 14 14 14H21C21.6188 14 22.2123 14.2458 22.6499 14.6834C23.0875 15.121 23.3333 15.7145 23.3333 16.3333V30.3333C23.3333 36.5563 20.223 40.4437 14 42" stroke="#3B82F6" stroke-opacity="0.2" stroke-width="5" stroke-linecap="round" stroke-linejoin="round"/>
<path d="M44.3333 25.6667H35C34.3812 25.6667 33.7877 25.4208 33.3501 24.9832C32.9125 24.5457 32.6667 23.9522 32.6667 23.3333V16.3333C32.6667 15.7145 32.9125 15.121 33.3501 14.6834C33.7877 14.2458 34.3812 14 35 14H42C42.6188 14 43.2123 14.2458 43.6499 14.6834C44.0875 15.121 44.3333 15.7145 44.3333 16.3333V30.3333C44.3333 36.5563 41.223 40.4437 35 42" stroke="#3B82F6" stroke-opacity="0.2" stroke-width="5" stroke-linecap="round" stroke-linejoin="round"/>
</g>
<defs>
<clipPath id="clip0_59_70">
<rect width="56" height="56" fill="white"/>
</clipPath>
</defs>
</svg>
