<svg width="24" height="24" viewBox="0 0 24 24" fill="none" xmlns="http://www.w3.org/2000/svg">
<path d="M3 17.2499V20.9999H6.75L17.81 9.92989L14.06 6.17989L3 17.2499ZM22.61 18.3599L18.36 22.6099L13.16 17.4099L14.93 15.6399L15.93 16.6399L18.4 14.1599L19.82 15.5799L18.36 16.9999L19.42 17.9999L20.84 16.5999L22.61 18.3599ZM6.61 10.8299L1.39 5.63989L5.64 1.38989L7.4 3.15989L4.93 5.63989L6 6.69989L8.46 4.21989L9.88 5.63989L8.46 7.04989L9.46 8.04989L6.61 10.8299ZM20.71 6.99989C21.1 6.60989 21.1 5.99989 20.71 5.58989L18.37 3.28989C18 2.89989 17.35 2.89989 16.96 3.28989L15.12 5.11989L18.87 8.86989L20.71 6.99989Z" fill="#3B82F6"/>
</svg>
